<?xml version="1.0" standalone="no"?>
<!DOCTYPE svg PUBLIC "-//W3C//DTD SVG 20010904//EN"
 "http://www.w3.org/TR/2001/REC-SVG-20010904/DTD/svg10.dtd">
<svg version="1.0" xmlns="http://www.w3.org/2000/svg"
 width="523.000000pt" height="477.000000pt" viewBox="0 0 523.000000 477.000000"
 preserveAspectRatio="xMidYMid meet">

<g transform="translate(0.000000,477.000000) scale(0.100000,-0.100000)"
fill="#000000" stroke="none">
<path d="M3943 4583 c-44 -61 -150 -174 -200 -214 -37 -30 -109 -69 -126 -69
-10 0 -17 -4 -17 -10 0 -12 -4 -13 50 4 49 15 113 55 170 106 89 80 131 125
146 156 9 19 19 34 23 34 15 0 109 -267 122 -345 40 -231 32 -362 -30 -483
-25 -50 -115 -142 -139 -142 -20 0 -49 -17 -41 -24 2 -3 23 1 44 9 77 27 96
21 168 -50 47 -48 67 -75 72 -101 6 -35 7 -35 20 -16 13 17 12 25 -6 63 -24
49 -28 53 -88 97 -29 20 -57 32 -77 32 l-33 0 33 33 c37 37 96 120 96 136 0 6
11 35 25 63 24 50 25 58 19 178 -9 186 -10 190 -22 202 -7 7 -12 25 -12 40 0
16 -6 39 -14 51 -7 12 -21 51 -31 87 -9 36 -26 81 -36 101 -10 20 -20 48 -23
62 -6 33 -24 67 -36 67 -5 0 -30 -30 -57 -67z"/>
<path d="M3470 4280 c-27 -6 -20 -8 32 -7 38 1 68 5 68 10 0 9 -53 7 -100 -3z"/>
<path d="M3256 4259 c-68 -16 -83 -42 -46 -79 27 -27 31 -25 18 12 -9 26 -8
33 7 45 26 18 64 16 72 -4 4 -10 25 -45 48 -78 78 -113 121 -224 127 -325 3
-54 3 -55 -27 -58 -16 -2 -42 -15 -58 -28 -16 -13 -41 -26 -55 -29 -86 -16
-172 -40 -209 -58 -24 -12 -45 -18 -48 -16 -2 3 -10 41 -16 85 -14 103 -46
209 -75 256 -13 21 -24 41 -24 46 0 17 -66 70 -108 86 -88 33 -178 9 -201 -54
-9 -27 -14 -30 -55 -30 -25 0 -47 -3 -49 -7 -3 -5 15 -6 39 -4 32 2 44 -1 44
-11 0 -14 -26 -85 -53 -149 -22 -49 -57 -182 -57 -214 0 -25 -1 -25 -80 -25
-97 0 -283 -54 -331 -96 -34 -30 -39 -17 -39 92 0 120 14 191 41 216 23 20 24
28 4 28 -38 0 -65 -116 -65 -278 0 -123 -11 -160 -61 -201 -17 -14 -39 -112
-38 -171 0 -27 17 12 29 65 10 45 67 155 81 155 3 0 30 -39 59 -87 30 -49 73
-109 97 -134 24 -25 43 -51 43 -56 0 -21 -45 -66 -84 -84 -129 -58 -295 20
-296 139 0 21 -2 24 -10 12 -31 -48 12 -134 83 -166 57 -26 178 -23 242 7 27
13 58 32 68 42 21 21 18 22 75 -18 44 -31 46 -40 30 -113 -3 -16 15 -103 23
-108 5 -3 9 -12 9 -21 0 -28 60 -93 86 -93 31 0 30 11 -2 41 -42 39 -54 73
-54 148 0 68 0 70 27 73 25 3 29 9 40 57 12 55 22 66 78 87 42 16 71 2 79 -36
8 -41 -4 -229 -16 -236 -4 -3 -8 -13 -8 -22 0 -44 -152 -222 -208 -243 -13 -5
-22 -12 -19 -15 12 -13 95 47 153 108 42 46 75 96 116 178 31 63 58 121 60
129 2 8 11 15 19 16 11 2 15 -8 15 -39 1 -62 13 -158 22 -181 67 -163 142
-248 235 -267 l58 -12 -29 -27 c-15 -14 -46 -32 -67 -40 -22 -7 -49 -20 -60
-29 -11 -9 -45 -22 -75 -29 -123 -29 -217 -90 -317 -207 -10 -11 -35 -33 -56
-49 -38 -28 -40 -28 -106 -18 -38 6 -78 19 -90 29 -24 20 -101 127 -101 140 0
14 -93 128 -139 172 -25 24 -61 50 -79 59 -18 8 -54 38 -80 65 -25 27 -57 51
-69 54 -14 4 -26 17 -30 32 -8 33 14 164 29 173 8 5 7 33 -2 104 -18 134 -2
256 37 301 10 10 24 27 32 37 12 16 12 17 -5 11 -24 -9 -54 -34 -54 -46 0 -5
-12 -26 -27 -48 -29 -46 -30 -55 -19 -280 6 -112 4 -150 -6 -169 -19 -34 -31
-29 -49 21 -9 23 -28 70 -43 103 -16 33 -32 83 -37 110 -24 138 -31 205 -26
253 5 49 -6 72 -17 35 -8 -28 -10 -132 -3 -140 4 -3 7 -37 7 -74 0 -37 5 -71
10 -74 6 -3 10 -20 10 -37 0 -17 13 -49 30 -75 17 -24 30 -47 30 -51 0 -4 14
-33 31 -65 25 -48 29 -65 24 -98 -7 -41 0 -50 19 -23 11 14 15 13 37 -10 13
-14 29 -26 34 -26 6 0 19 -15 30 -32 22 -38 40 -58 52 -58 4 0 34 -20 65 -45
65 -51 167 -174 203 -245 35 -69 103 -126 161 -134 124 -17 145 -7 263 117 88
92 160 132 276 153 22 4 51 14 65 24 14 9 41 23 60 30 19 7 44 21 55 30 54 44
50 46 80 -42 l28 -82 -6 -231 c-4 -140 -14 -291 -27 -385 -33 -247 -48 -504
-31 -530 15 -22 19 -1 26 130 3 63 9 147 14 185 5 39 16 135 25 215 8 80 20
184 26 231 5 48 10 133 10 190 0 88 2 101 13 82 6 -12 25 -40 40 -62 27 -37
28 -41 18 -97 -5 -33 -13 -105 -17 -161 -6 -97 -6 -103 13 -103 16 0 19 7 17
48 -3 57 12 212 21 221 4 3 11 -2 16 -11 5 -9 15 -23 22 -30 27 -28 66 -86
102 -153 45 -84 73 -125 85 -125 13 0 -1 35 -38 95 -17 28 -48 77 -68 110 -20
33 -42 64 -50 68 -8 4 -14 13 -14 20 0 7 -11 25 -25 41 -26 30 -42 72 -32 83
12 12 183 -41 221 -68 41 -30 59 -31 36 -4 -24 28 -84 54 -202 85 -30 8 -48
18 -48 27 0 8 -6 13 -12 10 -22 -8 -47 12 -67 54 -24 48 -31 92 -35 217 -3 91
-3 93 24 112 16 11 33 20 39 20 6 0 11 4 11 8 0 12 57 79 94 111 56 49 115
116 106 121 -4 3 1 25 12 50 30 67 44 99 71 168 14 34 33 69 41 78 9 8 16 23
16 32 0 9 16 64 35 122 53 156 55 162 55 215 0 64 -18 122 -44 138 -12 8 -42
22 -68 32 -53 20 -55 24 -56 111 -1 95 -57 239 -135 353 -19 28 -30 56 -29 73
2 23 -2 28 -20 28 -13 0 -32 2 -43 4 -11 3 -38 0 -59 -5z m-405 -159 c41 -11
79 -41 79 -60 0 -7 12 -33 26 -57 14 -25 23 -47 20 -50 -2 -3 6 -22 19 -43 20
-32 25 -56 31 -154 7 -113 6 -116 -14 -116 -24 0 -136 -46 -173 -72 -15 -9
-32 -31 -39 -48 -7 -16 -14 -30 -15 -30 -13 0 -35 14 -35 22 0 18 -65 77 -110
101 -45 23 -45 24 -48 82 -2 41 2 72 15 100 27 60 92 166 121 198 23 24 25 31
14 47 -13 22 -16 82 -4 94 8 8 55 2 113 -14z m639 -347 c-1 -24 -20 -35 -46
-29 -28 7 -28 8 -10 22 21 15 56 19 56 7z m-17 -58 c19 -18 14 -73 -15 -167
-27 -87 -51 -90 -106 -11 -32 45 -29 68 21 161 14 26 23 32 52 32 18 0 40 -7
48 -15z m-140 -1 c3 -3 -1 -24 -9 -46 -8 -22 -14 -54 -14 -69 0 -41 47 -107
87 -124 42 -18 42 -37 0 -89 -18 -23 -41 -54 -51 -71 -26 -41 -127 -155 -137
-155 -5 0 5 26 21 59 42 82 41 149 -1 228 -37 67 -60 94 -109 121 -57 31 -48
58 30 98 36 18 74 34 85 34 11 0 27 5 35 10 17 11 53 13 63 4z m248 -18 c37
-15 79 -80 79 -119 -1 -48 -81 -107 -145 -107 -33 0 -39 16 -25 71 6 24 15 62
19 84 7 37 27 85 35 85 2 0 19 -6 37 -14z m-1081 -87 c0 -37 -23 -103 -43
-126 -25 -28 -47 -15 -47 27 0 20 -10 35 -34 54 -19 14 -39 26 -45 26 -19 0
-12 -16 13 -30 55 -29 68 -148 28 -235 -13 -27 -31 -67 -40 -87 -28 -62 -42
-58 -107 32 -22 30 -43 60 -47 65 -22 28 -55 84 -67 113 -13 30 -12 35 10 58
52 56 222 121 317 123 57 1 62 -1 62 -20z m76 -45 c8 -33 9 -50 2 -53 -6 -2
-6 -6 -2 -10 10 -7 36 -59 55 -111 15 -42 71 -130 99 -155 23 -21 27 -79 8
-120 -16 -36 -32 -26 -36 25 -2 23 -9 49 -17 56 -22 23 -87 28 -129 10 -21 -9
-40 -16 -43 -16 -2 0 -3 17 -1 37 l3 37 55 -3 c39 -1 61 3 75 14 19 16 18 16
-24 10 -57 -7 -108 9 -114 38 -6 28 0 164 8 177 3 6 15 10 26 10 11 0 17 5 14
10 -3 6 -17 10 -31 10 -29 0 -29 -3 -3 49 11 23 25 41 31 39 6 -2 17 -26 24
-54z m114 -13 c70 -71 84 -99 84 -170 1 -80 -20 -123 -46 -94 -45 52 -107 181
-116 243 -5 36 -8 68 -5 73 7 11 44 -12 83 -52z m270 41 c0 -4 -7 -18 -16 -30
-21 -30 -6 -28 28 5 23 22 32 25 46 16 9 -6 15 -19 14 -29 -2 -11 -7 -48 -12
-84 -7 -54 -44 -186 -55 -199 -2 -1 -20 9 -40 24 -19 15 -39 25 -43 21 -4 -4
2 -14 13 -23 11 -8 31 -22 44 -32 l24 -18 -29 -56 c-15 -32 -33 -57 -39 -57
-7 0 -33 16 -59 36 -44 35 -46 39 -40 73 4 20 10 43 14 51 5 8 6 55 3 105 l-6
91 39 40 c60 61 114 93 114 66z m156 -54 c58 -45 66 -59 62 -113 -6 -65 -46
-130 -94 -150 -82 -34 -90 -14 -49 109 14 41 25 94 25 119 0 64 10 70 56 35z
m528 -100 c-3 -35 -9 -72 -14 -83 -23 -57 -66 -157 -90 -210 -15 -33 -33 -76
-40 -95 -14 -37 -97 -196 -112 -214 -5 -6 -22 -31 -38 -56 -51 -79 -139 -160
-175 -160 -8 0 -15 -7 -15 -15 0 -8 -9 -15 -21 -15 -11 0 -17 4 -14 10 3 5 8
22 10 37 3 16 8 47 11 71 4 23 11 45 15 48 5 3 9 16 9 29 0 13 7 30 15 39 11
10 15 36 15 88 0 82 -1 84 -51 121 -39 30 -82 34 -136 15 -30 -11 -35 -10 -63
17 -16 16 -30 36 -30 45 0 8 16 39 35 67 19 29 35 57 35 63 0 5 17 10 38 10
51 0 133 42 155 80 26 44 37 37 37 -23 0 -42 -8 -70 -37 -128 -21 -41 -42 -77
-48 -81 -5 -4 -1 -8 11 -8 11 0 29 9 39 20 25 28 45 25 45 -5 0 -14 12 -37 26
-52 21 -21 32 -25 64 -20 81 11 129 77 133 183 2 49 2 49 -40 68 -24 11 -43
24 -43 29 0 5 17 25 37 44 21 19 45 48 53 66 14 29 19 32 64 33 32 1 57 8 74
22 45 35 52 29 46 -40z m-1175 -113 c5 -84 4 -175 -2 -205 -3 -14 -6 -35 -6
-48 -1 -23 -1 -23 -31 -5 -17 10 -47 34 -66 54 l-36 37 29 54 c29 52 45 93 57
151 5 22 12 28 29 25 19 -3 22 -10 26 -63z m951 -64 c15 -30 12 -70 -10 -116
-23 -48 -76 -105 -97 -105 -26 0 -46 31 -51 80 -4 47 -3 50 48 104 56 60 91
71 110 37z m-594 -117 c39 -26 49 -52 28 -75 -23 -25 -10 -37 16 -14 17 15 24
16 45 7 14 -6 25 -16 25 -20 0 -5 -22 -30 -49 -55 -27 -25 -51 -51 -53 -57 -4
-12 -47 143 -55 198 -6 36 5 40 43 16z m277 -121 c4 -2 7 -9 7 -14 0 -6 7 -17
15 -25 27 -28 29 -85 6 -224 -11 -74 -21 -145 -21 -156 0 -55 -93 -27 -162 48
-27 28 -48 55 -48 61 0 6 -7 18 -16 28 -20 23 -30 139 -14 169 23 43 87 110
105 110 6 0 16 -5 23 -12 9 -9 12 -8 12 4 0 9 6 19 13 21 12 6 65 -1 80 -10z"/>
<path d="M2455 4020 l-70 -6 65 -2 c36 -1 72 3 80 8 8 5 11 9 5 8 -5 -1 -41
-4 -80 -8z"/>
<path d="M2215 4010 c-50 -12 -99 -36 -115 -55 -14 -18 -14 -18 15 -3 77 40
88 44 93 30 3 -10 7 -9 16 3 8 11 33 17 80 20 38 3 71 7 74 10 8 8 -129 4
-163 -5z"/>
<path d="M2174 3955 c-17 -13 -17 -14 -2 -15 9 0 20 5 23 11 11 17 0 20 -21 4z"/>
<path d="M2080 3910 c0 -5 5 -10 10 -10 6 0 10 5 10 10 0 6 -4 10 -10 10 -5 0
-10 -4 -10 -10z"/>
<path d="M2035 3890 c-3 -5 -2 -10 4 -10 5 0 13 5 16 10 3 6 2 10 -4 10 -5 0
-13 -4 -16 -10z"/>
<path d="M1934 3855 c-26 -19 1 -20 36 0 23 13 23 14 4 15 -11 0 -29 -7 -40
-15z"/>
<path d="M1855 3831 c-16 -4 -40 -13 -53 -20 -53 -28 -230 -69 -352 -81 l-85
-9 105 5 c58 2 131 11 162 19 32 9 82 21 111 29 29 7 67 21 84 30 18 9 39 16
47 16 8 0 18 5 21 10 7 11 3 11 -40 1z"/>
<path d="M1241 3776 c-7 -8 -14 -34 -16 -58 -6 -74 -22 -141 -43 -188 -12 -25
-22 -59 -22 -77 0 -17 -5 -35 -11 -39 -12 -7 -11 -28 9 -224 4 -41 12 -82 17
-92 15 -25 97 -94 123 -102 12 -4 22 -11 22 -16 0 -9 51 -20 63 -13 5 3 -13
16 -39 29 -64 33 -86 55 -126 127 -31 57 -33 68 -32 147 2 103 40 307 80 431
13 39 20 49 33 43 9 -3 27 -8 41 -10 17 -3 15 -1 -7 6 -17 6 -35 19 -38 30 -7
23 -37 26 -54 6z"/>
<path d="M1520 2990 c-8 -5 -37 -10 -63 -10 -28 0 -46 -4 -42 -10 3 -5 12 -7
20 -4 38 15 31 -12 -18 -69 -30 -34 -70 -87 -90 -118 -38 -57 -97 -219 -97
-263 0 -14 -4 -28 -10 -31 -5 -3 -10 -17 -10 -30 0 -13 -5 -27 -11 -31 -6 -4
-8 -20 -4 -40 3 -20 1 -50 -6 -69 -12 -32 -10 -40 28 -117 22 -46 44 -92 47
-103 3 -11 20 -36 37 -55 17 -19 51 -64 76 -100 24 -36 54 -77 66 -93 l21 -27
-28 -55 c-24 -45 -37 -58 -83 -79 -29 -15 -57 -26 -62 -26 -9 0 -92 -41 -101
-50 -3 -3 -17 -11 -32 -19 -15 -7 -41 -29 -59 -47 -29 -29 -30 -34 -13 -34 11
0 32 12 46 28 42 43 67 62 81 62 6 0 39 14 72 30 33 17 63 30 67 30 4 0 6 -15
5 -33 -3 -34 -71 -167 -86 -167 -5 0 -14 -13 -20 -28 -6 -15 -32 -49 -57 -75
-42 -42 -44 -47 -23 -47 25 0 115 88 130 127 5 13 14 23 21 23 7 0 18 10 24
23 45 89 45 89 60 70 7 -10 14 -24 14 -30 0 -7 4 -13 10 -13 5 0 16 -15 25
-34 9 -19 23 -37 31 -40 8 -3 14 -13 14 -23 1 -25 66 -93 90 -93 21 0 27 15 9
25 -5 4 -22 31 -36 61 -14 30 -31 54 -38 54 -7 0 -18 13 -23 29 -6 16 -27 52
-47 81 l-37 52 39 77 c36 72 41 78 101 107 34 17 71 41 81 53 25 28 33 27 55
-11 22 -37 26 -165 6 -238 -20 -77 -22 -97 -11 -104 6 -4 13 -1 15 6 2 7 10
36 19 63 36 116 39 239 8 309 -12 25 -27 46 -34 46 -15 0 -67 -44 -67 -56 0
-5 -15 -19 -33 -31 -34 -24 -77 -31 -77 -13 0 6 5 10 10 10 6 0 10 5 10 11 0
6 14 27 30 46 17 18 30 38 30 43 0 5 10 20 23 33 64 69 96 107 108 128 7 13
17 29 23 35 6 6 22 27 36 47 14 20 28 37 32 37 10 0 14 -49 7 -120 -3 -36 -5
-225 -4 -420 0 -322 2 -359 19 -395 11 -24 16 -51 13 -71 -7 -41 2 -51 88
-102 66 -38 125 -59 170 -60 11 0 31 -3 45 -6 14 -3 88 -9 165 -12 145 -6 368
-43 415 -68 14 -8 36 -16 50 -18 14 -1 27 -6 30 -9 3 -4 25 -10 50 -13 43 -7
42 -6 -30 27 -109 49 -210 71 -395 87 -351 30 -409 43 -516 112 -54 36 -61 52
-26 62 14 4 18 9 11 13 -7 5 -18 28 -25 53 -7 25 -17 48 -21 51 -13 9 -7 453
6 523 4 16 1 35 -5 42 -8 10 -8 23 1 50 8 22 11 79 10 143 -6 216 1 282 38
338 18 29 8 47 -19 33 -10 -6 -19 -16 -19 -23 0 -41 -144 -279 -216 -357 -45
-49 -132 -160 -152 -192 -21 -36 -33 -35 -57 4 -10 18 -43 64 -72 103 -29 38
-61 81 -71 95 -65 87 -93 238 -66 358 31 143 62 222 136 349 25 43 91 127 118
150 8 6 26 21 40 32 26 21 10 30 -20 11z"/>
<path d="M1988 2976 c-51 -15 -78 -41 -78 -71 0 -30 25 -34 33 -5 13 49 147
54 179 6 25 -37 -13 -149 -56 -166 -13 -4 -47 -10 -76 -11 -50 -3 -55 -1 -85
34 -18 20 -37 37 -44 37 -6 0 -11 5 -11 11 0 5 5 7 12 3 8 -5 9 -2 5 10 -4 10
-7 22 -7 27 0 23 -18 6 -24 -22 -8 -40 19 -97 56 -118 15 -9 28 -20 28 -26 0
-17 128 -91 139 -80 3 4 -3 13 -14 20 -11 8 -30 24 -43 37 l-22 23 59 15 c50
13 66 23 104 65 38 43 44 56 45 95 1 41 -2 48 -38 74 -34 25 -105 58 -120 55
-3 -1 -22 -6 -42 -13z"/>
<path d="M2094 2592 c9 -14 73 -35 89 -29 6 3 3 6 -8 6 -12 1 -25 5 -30 10
-15 14 -59 25 -51 13z"/>
<path d="M2355 2585 c-16 -8 -23 -14 -15 -14 8 0 26 6 40 14 32 18 15 18 -25
0z"/>
<path d="M2210 2558 c0 -10 70 -9 95 2 14 5 1 8 -37 7 -32 -1 -58 -5 -58 -9z"/>
<path d="M1946 969 c-3 -17 -6 -54 -6 -81 0 -27 -5 -93 -11 -146 -14 -120 -29
-142 -100 -142 -26 0 -85 9 -131 20 -102 24 -217 26 -259 4 -17 -8 -29 -18
-26 -21 3 -2 15 0 26 7 27 14 144 7 234 -14 141 -33 277 -5 277 56 0 9 4 19 8
22 5 3 12 53 15 110 4 58 10 131 13 161 6 51 5 55 -13 55 -15 0 -22 -9 -27
-31z"/>
<path d="M2464 972 c-14 -10 -58 -98 -74 -147 -13 -43 -52 -139 -77 -193 -9
-18 -12 -36 -8 -40 13 -13 199 -5 275 11 138 31 253 66 261 79 11 17 3 23 -13
11 -38 -30 -317 -93 -414 -93 l-67 0 6 34 c3 18 21 68 41 110 20 42 36 82 36
90 0 7 11 30 25 50 14 20 27 47 31 60 6 25 -5 39 -22 28z"/>
</g>
</svg>
